<?xml version="1.0" encoding="UTF-8" standalone="no"?>
<!DOCTYPE svg PUBLIC "-//W3C//DTD SVG 1.1//EN" "http://www.w3.org/Graphics/SVG/1.1/DTD/svg11.dtd">
<!-- Generated by Microsoft Visio, SVG Export chain_responsibility.svg Page-1 -->
<svg xmlns="http://www.w3.org/2000/svg" xmlns:xlink="http://www.w3.org/1999/xlink" xmlns:ev="http://www.w3.org/2001/xml-events"
		xmlns:v="http://schemas.microsoft.com/visio/2003/SVGExtensions/" width="8.27466in" height="3.28057in"
		viewBox="0 0 595.776 236.201" xml:space="preserve" color-interpolation-filters="sRGB" class="st16">
	<v:documentProperties v:langID="1033" v:metric="true" v:viewMarkup="false">
		<v:userDefs>
			<v:ud v:nameU="msvSubprocessMaster" v:prompt="" v:val="VT4(Rectangle)"/>
			<v:ud v:nameU="msvNoAutoConnect" v:val="VT0(1):26"/>
		</v:userDefs>
	</v:documentProperties>

	<style type="text/css">
	<![CDATA[
		.st1 {fill:#a5a5a5;stroke:#ffffff;stroke-linecap:round;stroke-linejoin:round;stroke-width:0.5}
		.st2 {fill:#ffffff;font-family:Calibri;font-size:1.5em}
		.st3 {fill:#ffffff;stroke:#5b9bd5;stroke-linecap:round;stroke-linejoin:round;stroke-width:0.5}
		.st4 {fill:#5b9ad4;font-family:Calibri;font-size:1.16666em}
		.st5 {fill:#5b9bd5;stroke:#ffffff;stroke-linecap:round;stroke-linejoin:round;stroke-width:0.5}
		.st6 {fill:#ffffff;font-family:Calibri;font-size:0.833336em}
		.st7 {fill:#73ae42;stroke:#ffffff;stroke-linecap:round;stroke-linejoin:round;stroke-width:0.5}
		.st8 {marker-end:url(#mrkr4-18);stroke:#5592c9;stroke-linecap:round;stroke-linejoin:round;stroke-width:1}
		.st9 {fill:#5592c9;fill-opacity:1;stroke:#5592c9;stroke-opacity:1;stroke-width:0.28409090909091}
		.st10 {fill:#ffffff;stroke:none;stroke-linecap:butt;stroke-width:7.2}
		.st11 {fill:#41719d;font-family:Calibri;font-size:0.666664em}
		.st12 {fill:#ffffff;stroke:#73ae42;stroke-linecap:round;stroke-linejoin:round;stroke-width:0.5}
		.st13 {fill:#73ad42;font-family:Calibri;font-size:1.16666em}
		.st14 {fill:#ffffff;stroke:none;stroke-linecap:butt}
		.st15 {fill:#ffffff;font-family:Calibri;font-size:0.75em}
		.st16 {fill:none;fill-rule:evenodd;font-size:12px;overflow:visible;stroke-linecap:square;stroke-miterlimit:3}
	]]>
	</style>

	<defs id="Markers">
		<g id="lend4">
			<path d="M 2 1 L 0 0 L 2 -1 L 2 1 " style="stroke:none"/>
		</g>
		<marker id="mrkr4-18" class="st9" v:arrowType="4" v:arrowSize="2" v:setback="7.04" refX="-7.04" orient="auto"
				markerUnits="strokeWidth" overflow="visible">
			<use xlink:href="#lend4" transform="scale(-3.52,-3.52) "/>
		</marker>
	</defs>
	<g v:mID="0" v:index="1" v:groupContext="foregroundPage">
		<v:userDefs>
			<v:ud v:nameU="msvThemeOrder" v:val="VT0(0):26"/>
		</v:userDefs>
		<title>Page-1</title>
		<v:pageProperties v:drawingScale="0.0393701" v:pageScale="0.0393701" v:drawingUnits="24" v:shadowOffsetX="8.50394"
				v:shadowOffsetY="-8.50394"/>
		<v:layer v:name="Connector" v:index="0"/>
		<g id="shape1-1" v:mID="1" v:groupContext="shape" transform="translate(18.25,-134.329)">
			<title>Circle</title>
			<desc>Client</desc>
			<v:userDefs>
				<v:ud v:nameU="visVersion" v:val="VT0(15):26"/>
			</v:userDefs>
			<v:textBlock v:margins="rect(4,4,4,4)" v:tabSpace="42.5197"/>
			<v:textRect cx="41.811" cy="194.39" width="73.17" height="62.7165"/>
			<path d="M0 194.39 A41.811 41.811 0 1 1 83.62 194.39 A41.811 41.811 0 1 1 0 194.39 Z" class="st1"/>
			<text x="20.66" y="199.79" class="st2" v:langID="1045"><v:paragraph v:horizAlign="1"/><v:tabList/>Client</text>		</g>
		<g id="shape2-4" v:mID="2" v:groupContext="shape" transform="translate(158.99,-139.467)">
			<title>Circle.16</title>
			<desc>Handler1</desc>
			<v:userDefs>
				<v:ud v:nameU="visVersion" v:val="VT0(15):26"/>
			</v:userDefs>
			<v:textBlock v:margins="rect(4,4,4,4)" v:tabSpace="42.5197"/>
			<v:textRect cx="36.6732" cy="199.528" width="64.18" height="55.0098"/>
			<path d="M0 199.53 A36.6732 36.6732 0 1 1 73.35 199.53 A36.6732 36.6732 0 0 1 -0 199.53 Z" class="st3"/>
			<text x="10.53" y="203.73" class="st4" v:langID="1045"><v:paragraph v:horizAlign="1"/><v:tabList/>Handler1</text>		</g>
		<g id="shape4-7" v:mID="4" v:groupContext="shape" transform="translate(269.683,-18)">
			<title>Rounded Rectangle.26</title>
			<desc>Handler</desc>
			<v:userDefs>
				<v:ud v:nameU="CTypeTopLeftSnip" v:prompt="" v:val="VT0(0):5"/>
				<v:ud v:nameU="CTypeTopRightSnip" v:prompt="" v:val="VT0(0):5"/>
				<v:ud v:nameU="CTypeBotLeftSnip" v:prompt="" v:val="VT0(0):5"/>
				<v:ud v:nameU="CTypeBotRightSnip" v:prompt="" v:val="VT0(0):5"/>
				<v:ud v:nameU="CornerLockHoriz" v:prompt="" v:val="VT0(1):5"/>
				<v:ud v:nameU="CornerLockVert" v:prompt="" v:val="VT0(1):5"/>
				<v:ud v:nameU="CornerLockDiag" v:prompt="" v:val="VT0(0):5"/>
				<v:ud v:nameU="TopLeftOffset" v:prompt="" v:val="VT0(0.15748031496063):24"/>
				<v:ud v:nameU="TopRightOffset" v:prompt="" v:val="VT0(0.15748031496063):24"/>
				<v:ud v:nameU="BotLeftOffset" v:prompt="" v:val="VT0(0.15748031496063):24"/>
				<v:ud v:nameU="BotRightOffset" v:prompt="" v:val="VT0(0.15748031496063):24"/>
				<v:ud v:nameU="visVersion" v:prompt="" v:val="VT0(15):26"/>
				<v:ud v:nameU="TopLeftOffset" v:prompt="" v:val="VT0(0.13582677283655):1"/>
				<v:ud v:nameU="TopRightOffset" v:prompt="" v:val="VT0(0.13582677283655):1"/>
				<v:ud v:nameU="BotLeftOffset" v:prompt="" v:val="VT0(0.13582677283655):1"/>
				<v:ud v:nameU="BotRightOffset" v:prompt="" v:val="VT0(0.13582677283655):1"/>
			</v:userDefs>
			<v:textBlock v:margins="rect(4,4,4,4)" v:tabSpace="42.5197"/>
			<v:textRect cx="48.8976" cy="199.528" width="97.8" height="73.3465"/>
			<path d="M9.78 236.2 L88.02 236.2 A9.77937 9.77937 -180 0 0 97.8 226.42 L97.8 172.63 A9.77937 9.77937 -180 0 0 88.02
						 162.85 L9.78 162.85 A9.77937 9.77937 -180 0 0 -0 172.63 L0 226.42 A9.77937 9.77937 -180 0 0 9.78 236.2 Z"
					class="st5"/>
			<text x="32.75" y="202.53" class="st6" v:langID="1045"><v:paragraph v:horizAlign="1"/><v:tabList/>Handler</text>		</g>
		<g id="shape5-10" v:mID="5" v:groupContext="shape" transform="translate(283.148,-24.9997)">
			<title>Rectangle</title>
			<desc>successor</desc>
			<v:userDefs>
				<v:ud v:nameU="visVersion" v:val="VT0(15):26"/>
			</v:userDefs>
			<v:textBlock v:margins="rect(4,4,4,4)" v:tabSpace="42.5197"/>
			<v:textRect cx="35.4331" cy="226.618" width="70.87" height="19.1661"/>
			<rect x="0" y="217.035" width="70.8661" height="19.1661" class="st7"/>
			<text x="15.84" y="229.62" class="st6" v:langID="1045"><v:paragraph v:horizAlign="1"/><v:tabList/>successor</text>		</g>
		<g id="shape11-13" v:mID="11" v:groupContext="shape" v:layerMember="0" transform="translate(101.872,-169.053)">
			<title>Dynamic connector.27</title>
			<desc>operation()</desc>
			<v:textBlock v:margins="rect(4,4,4,4)" v:tabSpace="42.5197"/>
			<v:textRect cx="28.5591" cy="229.114" width="46.63" height="17.6036"/>
			<path d="M0 229.11 L50.08 229.11" class="st8"/>
			<rect v:rectContext="textBkgnd" x="10.1531" y="224.314" width="36.8122" height="9.59985" class="st10"/>
			<text x="10.15" y="231.51" class="st11" v:langID="1045"><v:paragraph v:horizAlign="1"/><v:tabList/>operation()</text>		</g>
		<g id="shape12-21" v:mID="12" v:groupContext="shape" v:layerMember="0" transform="translate(232.337,-169.053)">
			<title>Dynamic connector.28</title>
			<desc>handle()</desc>
			<v:textBlock v:margins="rect(4,4,4,4)" v:tabSpace="42.5197"/>
			<v:textRect cx="24.7854" cy="229.114" width="40" height="17.6036"/>
			<path d="M0 229.11 L42.53 229.11" class="st8"/>
			<rect v:rectContext="textBkgnd" x="11.2308" y="224.314" width="27.109" height="9.59985" class="st10"/>
			<text x="11.23" y="231.51" class="st11" v:langID="1045"><v:paragraph v:horizAlign="1"/><v:tabList/>handle()</text>		</g>
		<g id="shape14-28" v:mID="14" v:groupContext="shape" transform="translate(406.668,-18)">
			<title>Circle.30</title>
			<desc>Request</desc>
			<v:userDefs>
				<v:ud v:nameU="visVersion" v:val="VT0(15):26"/>
			</v:userDefs>
			<v:textBlock v:margins="rect(4,4,4,4)" v:tabSpace="42.5197"/>
			<v:textRect cx="33.625" cy="202.576" width="58.85" height="50.4375"/>
			<path d="M0 202.58 A33.625 33.625 0 0 1 67.25 202.58 A33.625 33.625 0 1 1 0 202.58 Z" class="st12"/>
			<text x="10.42" y="206.78" class="st13" v:langID="1045"><v:paragraph v:horizAlign="1"/><v:tabList/>Request</text>		</g>
		<g id="shape15-31" v:mID="15" v:groupContext="shape" v:layerMember="0" transform="translate(447.38,-139.467)">
			<title>Dynamic connector.31</title>
			<desc>operation()</desc>
			<v:textBlock v:margins="rect(4,4,4,4)" v:tabSpace="42.5197"/>
			<v:textRect cx="-7.08661" cy="263.309" width="46.63" height="17.6036"/>
			<path d="M-7.09 236.2 L-7.09 283.38" class="st8"/>
			<rect v:rectContext="textBkgnd" x="-25.4926" y="258.509" width="36.8122" height="9.59985" class="st10"/>
			<text x="-25.49" y="265.71" class="st11" v:langID="1045"><v:paragraph v:horizAlign="1"/><v:tabList/>operation()</text>		</g>
		<g id="shape18-38" v:mID="18" v:groupContext="shape" transform="translate(281.907,-139.467)">
			<title>Circle.18</title>
			<desc>Handler2</desc>
			<v:userDefs>
				<v:ud v:nameU="visVersion" v:val="VT0(15):26"/>
			</v:userDefs>
			<v:textBlock v:margins="rect(4,4,4,4)" v:tabSpace="42.5197"/>
			<v:textRect cx="36.6732" cy="199.528" width="64.18" height="55.0098"/>
			<path d="M0 199.53 A36.6732 36.6732 0 1 1 73.35 199.53 A36.6732 36.6732 0 0 1 -0 199.53 Z" class="st3"/>
			<text x="10.53" y="203.73" class="st4" v:langID="1045"><v:paragraph v:horizAlign="1"/><v:tabList/>Handler2</text>		</g>
		<g id="shape19-41" v:mID="19" v:groupContext="shape" transform="translate(504.179,-139.467)">
			<title>Circle.19</title>
			<desc>Handler4</desc>
			<v:userDefs>
				<v:ud v:nameU="visVersion" v:val="VT0(15):26"/>
			</v:userDefs>
			<v:textBlock v:margins="rect(4,4,4,4)" v:tabSpace="42.5197"/>
			<v:textRect cx="36.6732" cy="199.528" width="64.18" height="55.0098"/>
			<path d="M0 199.53 A36.6732 36.6732 0 1 1 73.35 199.53 A36.6732 36.6732 0 0 1 -0 199.53 Z" class="st3"/>
			<text x="10.53" y="203.73" class="st4" v:langID="1045"><v:paragraph v:horizAlign="1"/><v:tabList/>Handler4</text>		</g>
		<g id="shape20-44" v:mID="20" v:groupContext="shape" transform="translate(403.62,-139.467)">
			<title>Circle.20</title>
			<desc>Handler3</desc>
			<v:userDefs>
				<v:ud v:nameU="visVersion" v:val="VT0(15):26"/>
			</v:userDefs>
			<v:textBlock v:margins="rect(4,4,4,4)" v:tabSpace="42.5197"/>
			<v:textRect cx="36.6732" cy="199.528" width="64.18" height="55.0098"/>
			<path d="M0 199.53 A36.6732 36.6732 0 1 1 73.35 199.53 A36.6732 36.6732 0 0 1 -0 199.53 Z" class="st3"/>
			<text x="10.53" y="203.73" class="st4" v:langID="1045"><v:paragraph v:horizAlign="1"/><v:tabList/>Handler3</text>		</g>
		<g id="shape21-47" v:mID="21" v:groupContext="shape" v:layerMember="0" transform="translate(355.254,-169.053)">
			<title>Dynamic connector.21</title>
			<desc>handle()</desc>
			<v:textBlock v:margins="rect(4,4,4,4)" v:tabSpace="42.5197"/>
			<v:textRect cx="24.1831" cy="229.114" width="40" height="17.6036"/>
			<path d="M0 229.11 L41.33 229.11" class="st8"/>
			<rect v:rectContext="textBkgnd" x="10.6285" y="224.314" width="27.109" height="9.59985" class="st14"/>
			<text x="10.63" y="231.51" class="st11" v:langID="1045"><v:paragraph v:horizAlign="1"/><v:tabList/>handle()</text>		</g>
		<g id="shape23-54" v:mID="23" v:groupContext="shape" transform="translate(172.756,-151.195)">
			<title>Rectangle.23</title>
			<desc>handler2</desc>
			<v:userDefs>
				<v:ud v:nameU="visVersion" v:val="VT0(15):26"/>
			</v:userDefs>
			<v:textBlock v:margins="rect(4,4,4,4)" v:tabSpace="42.5197"/>
			<v:textRect cx="22.9075" cy="228.264" width="45.82" height="15.874"/>
			<rect x="0" y="220.327" width="45.8149" height="15.874" class="st7"/>
			<text x="6.54" y="230.96" class="st15" v:langID="1045"><v:paragraph v:horizAlign="1"/><v:tabList/>handler2</text>		</g>
		<g id="shape24-57" v:mID="24" v:groupContext="shape" transform="translate(295.673,-151.195)">
			<title>Rectangle.24</title>
			<desc>handler3</desc>
			<v:userDefs>
				<v:ud v:nameU="visVersion" v:val="VT0(15):26"/>
			</v:userDefs>
			<v:textBlock v:margins="rect(4,4,4,4)" v:tabSpace="42.5197"/>
			<v:textRect cx="22.9075" cy="228.264" width="45.82" height="15.874"/>
			<rect x="0" y="220.327" width="45.8149" height="15.874" class="st7"/>
			<text x="6.54" y="230.96" class="st15" v:langID="1045"><v:paragraph v:horizAlign="1"/><v:tabList/>handler3</text>		</g>
		<g id="shape25-60" v:mID="25" v:groupContext="shape" transform="translate(417.386,-151.195)">
			<title>Rectangle.25</title>
			<desc>handler4</desc>
			<v:userDefs>
				<v:ud v:nameU="visVersion" v:val="VT0(15):26"/>
			</v:userDefs>
			<v:textBlock v:margins="rect(4,4,4,4)" v:tabSpace="42.5197"/>
			<v:textRect cx="22.9075" cy="228.264" width="45.82" height="15.874"/>
			<rect x="0" y="220.327" width="45.8149" height="15.874" class="st7"/>
			<text x="6.54" y="230.96" class="st15" v:langID="1045"><v:paragraph v:horizAlign="1"/><v:tabList/>handler4</text>		</g>
		<g id="shape26-63" v:mID="26" v:groupContext="shape" transform="translate(517.945,-151.195)">
			<title>Rectangle.26</title>
			<desc>null</desc>
			<v:userDefs>
				<v:ud v:nameU="visVersion" v:val="VT0(15):26"/>
			</v:userDefs>
			<v:textBlock v:margins="rect(4,4,4,4)" v:tabSpace="42.5197"/>
			<v:textRect cx="22.9075" cy="228.264" width="45.82" height="15.874"/>
			<rect x="0" y="220.327" width="45.8149" height="15.874" class="st7"/>
			<text x="16.11" y="230.96" class="st15" v:langID="1045"><v:paragraph v:horizAlign="1"/><v:tabList/>null</text>		</g>
		<g id="shape27-66" v:mID="27" v:groupContext="shape" v:layerMember="0" transform="translate(195.663,-139.467)">
			<title>Dynamic connector</title>
			<path d="M0 236.2 L0 246.83 L122.92 246.83 L122.92 277.28" class="st8"/>
		</g>
		<g id="shape28-71" v:mID="28" v:groupContext="shape" v:layerMember="0" transform="translate(440.293,-139.467)">
			<title>Dynamic connector.28</title>
			<path d="M0 236.2 L0 246.83 L-121.71 246.83 L-121.71 277.28" class="st8"/>
		</g>
		<g id="shape29-76" v:mID="29" v:groupContext="shape" v:layerMember="0" transform="translate(540.852,-139.467)">
			<title>Dynamic connector.29</title>
			<path d="M0 236.2 L0 246.83 L-98.2 246.83 A2.3622 2.3622 -180 1 0 -102.92 246.83 L-222.27 246.83 L-222.27 277.28"
					class="st8"/>
		</g>
		<g id="shape30-81" v:mID="30" v:groupContext="shape" v:layerMember="0" transform="translate(311.494,-139.467)">
			<title>Dynamic connector.30</title>
			<desc>extend</desc>
			<v:textBlock v:margins="rect(4,4,4,4)" v:tabSpace="42.5197"/>
			<v:textRect cx="7.08661" cy="260.261" width="40" height="17.6036"/>
			<path d="M7.09 236.2 L7.09 277.28" class="st8"/>
			<rect v:rectContext="textBkgnd" x="-4.16909" y="255.461" width="22.5113" height="9.59985" class="st10"/>
			<text x="-4.17" y="262.66" class="st11" v:langID="1045"><v:paragraph v:horizAlign="1"/><v:tabList/>extend</text>		</g>
	</g>
</svg>
