<?xml version="1.0" encoding="UTF-8" standalone="no"?>
<!DOCTYPE svg PUBLIC "-//W3C//DTD SVG 1.1//EN" "http://www.w3.org/Graphics/SVG/1.1/DTD/svg11.dtd">
<!-- Generated by Microsoft Visio, SVG Export composite.svg Page-1 -->
<svg xmlns="http://www.w3.org/2000/svg" xmlns:xlink="http://www.w3.org/1999/xlink" xmlns:ev="http://www.w3.org/2001/xml-events"
		xmlns:v="http://schemas.microsoft.com/visio/2003/SVGExtensions/" width="4.98135in" height="4.44468in"
		viewBox="0 0 358.657 320.017" xml:space="preserve" color-interpolation-filters="sRGB" class="st17">
	<v:documentProperties v:langID="1033" v:metric="true" v:viewMarkup="false">
		<v:userDefs>
			<v:ud v:nameU="msvSubprocessMaster" v:prompt="" v:val="VT4(Rectangle)"/>
			<v:ud v:nameU="msvNoAutoConnect" v:val="VT0(1):26"/>
		</v:userDefs>
	</v:documentProperties>

	<style type="text/css">
	<![CDATA[
		.st1 {fill:#5b9bd5;stroke:#ffffff;stroke-linecap:round;stroke-linejoin:round;stroke-width:0.5}
		.st2 {fill:#ffffff;font-family:Calibri;font-size:1.00001em}
		.st3 {fill:#73ae42;stroke:#ffffff;stroke-linecap:round;stroke-linejoin:round;stroke-width:0.5}
		.st4 {fill:#ffffff;font-family:Calibri;font-size:0.833336em}
		.st5 {marker-end:url(#mrkr4-12);stroke:#6ca43d;stroke-dasharray:1,2;stroke-linecap:round;stroke-linejoin:round;stroke-width:1}
		.st6 {fill:#6ca43d;fill-opacity:1;stroke:#6ca43d;stroke-opacity:1;stroke-width:0.28409090909091}
		.st7 {fill:#ffffff;stroke:none;stroke-linecap:butt;stroke-width:7.2}
		.st8 {fill:#53802e;font-family:Calibri;font-size:0.666664em}
		.st9 {fill:#ffffff;font-family:Calibri;font-size:0.666664em}
		.st10 {fill:#a5a5a5;stroke:#ffffff;stroke-linecap:round;stroke-linejoin:round;stroke-width:0.5}
		.st11 {marker-end:url(#mrkr4-34);stroke:#5592c9;stroke-linecap:round;stroke-linejoin:round;stroke-width:1}
		.st12 {fill:#5592c9;fill-opacity:1;stroke:#5592c9;stroke-opacity:1;stroke-width:0.28409090909091}
		.st13 {fill:#41719d;font-family:Calibri;font-size:0.666664em}
		.st14 {fill:#ffffff;stroke:#73ae42;stroke-linecap:round;stroke-linejoin:round;stroke-width:0.5}
		.st15 {fill:#73ad42;font-family:Calibri;font-size:0.75em}
		.st16 {font-size:1em}
		.st17 {fill:none;fill-rule:evenodd;font-size:12px;overflow:visible;stroke-linecap:square;stroke-miterlimit:3}
	]]>
	</style>

	<defs id="Markers">
		<g id="lend4">
			<path d="M 2 1 L 0 0 L 2 -1 L 2 1 " style="stroke:none"/>
		</g>
		<marker id="mrkr4-12" class="st6" v:arrowType="4" v:arrowSize="2" v:setback="7.04" refX="-7.04" orient="auto"
				markerUnits="strokeWidth" overflow="visible">
			<use xlink:href="#lend4" transform="scale(-3.52,-3.52) "/>
		</marker>
		<marker id="mrkr4-34" class="st12" v:arrowType="4" v:arrowSize="2" v:setback="7.04" refX="-7.04" orient="auto"
				markerUnits="strokeWidth" overflow="visible">
			<use xlink:href="#lend4" transform="scale(-3.52,-3.52) "/>
		</marker>
	</defs>
	<g v:mID="0" v:index="1" v:groupContext="foregroundPage">
		<v:userDefs>
			<v:ud v:nameU="msvThemeOrder" v:val="VT0(0):26"/>
		</v:userDefs>
		<title>Page-1</title>
		<v:pageProperties v:drawingScale="0.0393701" v:pageScale="0.0393701" v:drawingUnits="24" v:shadowOffsetX="8.50394"
				v:shadowOffsetY="-8.50394"/>
		<v:layer v:name="Connector" v:index="0"/>
		<g id="shape1-1" v:mID="1" v:groupContext="shape" transform="translate(262.03,-125.967)">
			<title>Circle.1</title>
			<desc>Leaf</desc>
			<v:userDefs>
				<v:ud v:nameU="visVersion" v:val="VT0(15):26"/>
			</v:userDefs>
			<v:textBlock v:margins="rect(4,4,4,4)" v:tabSpace="42.5197"/>
			<v:textRect cx="39.189" cy="280.828" width="68.59" height="58.7835"/>
			<path d="M0 280.83 A39.189 39.189 0 0 1 78.38 280.83 A39.189 39.189 0 1 1 0 280.83 Z" class="st1"/>
			<text x="28.98" y="284.43" class="st2" v:langID="1045"><v:paragraph v:horizAlign="1"/><v:tabList/>Leaf</text>		</g>
		<g id="shape2-4" v:mID="2" v:groupContext="shape" transform="translate(196.124,-18.25)">
			<title>Rounded Rectangle.2</title>
			<desc>Component</desc>
			<v:userDefs>
				<v:ud v:nameU="CTypeTopLeftSnip" v:prompt="" v:val="VT0(0):5"/>
				<v:ud v:nameU="CTypeTopRightSnip" v:prompt="" v:val="VT0(0):5"/>
				<v:ud v:nameU="CTypeBotLeftSnip" v:prompt="" v:val="VT0(0):5"/>
				<v:ud v:nameU="CTypeBotRightSnip" v:prompt="" v:val="VT0(0):5"/>
				<v:ud v:nameU="CornerLockHoriz" v:prompt="" v:val="VT0(1):5"/>
				<v:ud v:nameU="CornerLockVert" v:prompt="" v:val="VT0(1):5"/>
				<v:ud v:nameU="CornerLockDiag" v:prompt="" v:val="VT0(0):5"/>
				<v:ud v:nameU="TopLeftOffset" v:prompt="" v:val="VT0(0.15748031496063):24"/>
				<v:ud v:nameU="TopRightOffset" v:prompt="" v:val="VT0(0.15748031496063):24"/>
				<v:ud v:nameU="BotLeftOffset" v:prompt="" v:val="VT0(0.15748031496063):24"/>
				<v:ud v:nameU="BotRightOffset" v:prompt="" v:val="VT0(0.15748031496063):24"/>
				<v:ud v:nameU="visVersion" v:prompt="" v:val="VT0(15):26"/>
				<v:ud v:nameU="TopLeftOffset" v:prompt="" v:val="VT0(0.13582677283655):1"/>
				<v:ud v:nameU="TopRightOffset" v:prompt="" v:val="VT0(0.13582677283655):1"/>
				<v:ud v:nameU="BotLeftOffset" v:prompt="" v:val="VT0(0.13582677283655):1"/>
				<v:ud v:nameU="BotRightOffset" v:prompt="" v:val="VT0(0.13582677283655):1"/>
			</v:userDefs>
			<v:textBlock v:margins="rect(4,4,4,4)" v:tabSpace="42.5197"/>
			<v:textRect cx="48.8976" cy="283.344" width="97.8" height="73.3465"/>
			<path d="M9.78 320.02 L88.02 320.02 A9.77937 9.77937 -180 0 0 97.8 310.24 L97.8 256.45 A9.77937 9.77937 -180 0 0 88.02
						 246.67 L9.78 246.67 A9.77937 9.77937 -180 0 0 -0 256.45 L0 310.24 A9.77937 9.77937 -180 0 0 9.78 320.02
						 Z" class="st3"/>
			<text x="24.92" y="286.34" class="st4" v:langID="1045"><v:paragraph v:horizAlign="1"/><v:tabList/>Component</text>		</g>
		<g id="shape3-7" v:mID="3" v:groupContext="shape" v:layerMember="0" transform="translate(192.935,-128.341)">
			<title>Dynamic connector.18</title>
			<desc>implement</desc>
			<v:textBlock v:margins="rect(4,4,4,4)" v:tabSpace="42.5197"/>
			<v:textRect cx="52.0866" cy="333.73" width="45.32" height="17.6036"/>
			<path d="M0 320.02 L0 339.58 L52.09 339.58 L52.09 349.72" class="st5"/>
			<rect v:rectContext="textBkgnd" x="34.3372" y="328.93" width="35.499" height="9.59985" class="st7"/>
			<text x="34.34" y="336.13" class="st8" v:langID="1045"><v:paragraph v:horizAlign="1"/><v:tabList/>implement</text>		</g>
		<g id="shape4-15" v:mID="4" v:groupContext="shape" transform="translate(153.746,-128.341)">
			<title>Circle.15</title>
			<desc>Composite</desc>
			<v:userDefs>
				<v:ud v:nameU="visVersion" v:val="VT0(15):26"/>
			</v:userDefs>
			<v:textBlock v:margins="rect(4,4,4,4)" v:tabSpace="42.5197"/>
			<v:textRect cx="39.189" cy="280.828" width="68.59" height="58.7835"/>
			<path d="M0 280.83 A39.189 39.189 0 0 1 78.38 280.83 A39.189 39.189 0 1 1 0 280.83 Z" class="st1"/>
			<text x="13" y="284.43" class="st2" v:langID="1045"><v:paragraph v:horizAlign="1"/><v:tabList/>Composite</text>		</g>
		<g id="shape5-18" v:mID="5" v:groupContext="shape" transform="translate(168.132,-142.663)">
			<title>Rectangle.5</title>
			<desc>components</desc>
			<v:userDefs>
				<v:ud v:nameU="visVersion" v:val="VT0(15):26"/>
			</v:userDefs>
			<v:textBlock v:margins="rect(4,4,4,4)" v:tabSpace="42.5197"/>
			<v:textRect cx="24.8032" cy="312.871" width="49.61" height="14.2931"/>
			<rect x="0" y="305.724" width="49.6063" height="14.2931" class="st3"/>
			<text x="4.5" y="315.27" class="st9" v:langID="1045"><v:paragraph v:horizAlign="1"/><v:tabList/>components</text>		</g>
		<g id="shape6-21" v:mID="6" v:groupContext="shape" transform="translate(18.25,-128.341)">
			<title>Circle.16</title>
			<desc>Client</desc>
			<v:userDefs>
				<v:ud v:nameU="visVersion" v:val="VT0(15):26"/>
			</v:userDefs>
			<v:textBlock v:margins="rect(4,4,4,4)" v:tabSpace="42.5197"/>
			<v:textRect cx="39.189" cy="280.828" width="68.59" height="58.7835"/>
			<path d="M0 280.83 A39.189 39.189 0 0 1 78.38 280.83 A39.189 39.189 0 1 1 0 280.83 Z" class="st10"/>
			<text x="25.09" y="284.43" class="st2" v:langID="1045"><v:paragraph v:horizAlign="1"/><v:tabList/>Client</text>		</g>
		<g id="shape7-24" v:mID="7" v:groupContext="shape" v:layerMember="0" transform="translate(301.219,-125.967)">
			<title>Dynamic connector</title>
			<path d="M0 320.02 L0 337.02 L-56.2 337.02 L-56.2 347.35" class="st5"/>
		</g>
		<g id="shape8-29" v:mID="8" v:groupContext="shape" v:layerMember="0" transform="translate(96.628,-160.443)">
			<title>Dynamic connector.19</title>
			<desc>action()</desc>
			<v:textBlock v:margins="rect(4,4,4,4)" v:tabSpace="42.5197"/>
			<v:textRect cx="28.559" cy="312.93" width="40" height="17.6036"/>
			<path d="M0 312.93 L50.08 312.93" class="st11"/>
			<rect v:rectContext="textBkgnd" x="16.0572" y="308.131" width="25.0035" height="9.59985" class="st7"/>
			<text x="16.06" y="315.33" class="st13" v:langID="1045"><v:paragraph v:horizAlign="1"/><v:tabList/>action()</text>		</g>
		<g id="shape10-37" v:mID="10" v:groupContext="shape" transform="translate(89.4853,-242.102)">
			<title>Circle.10</title>
			<desc>Component1</desc>
			<v:userDefs>
				<v:ud v:nameU="visVersion" v:val="VT0(15):26"/>
			</v:userDefs>
			<v:textBlock v:margins="rect(4,4,4,4)" v:tabSpace="42.5197"/>
			<v:textRect cx="29.31" cy="290.707" width="51.3" height="43.965"/>
			<path d="M0 290.71 A29.31 29.31 0 1 1 58.62 290.71 A29.31 29.31 0 0 1 0 290.71 Z" class="st14"/>
			<text x="7.73" y="288.01" class="st15" v:langID="1045"><v:paragraph v:horizAlign="1"/><v:tabList/>Component<tspan
						x="27.03" dy="1.2em" class="st16">1</tspan></text>		</g>
		<g id="shape11-41" v:mID="11" v:groupContext="shape" transform="translate(163.625,-243.147)">
			<title>Circle.11</title>
			<desc>Component2</desc>
			<v:userDefs>
				<v:ud v:nameU="visVersion" v:val="VT0(15):26"/>
			</v:userDefs>
			<v:textBlock v:margins="rect(4,4,4,4)" v:tabSpace="42.5197"/>
			<v:textRect cx="29.31" cy="290.707" width="51.3" height="43.965"/>
			<path d="M0 290.71 A29.31 29.31 0 1 1 58.62 290.71 A29.31 29.31 0 0 1 0 290.71 Z" class="st14"/>
			<text x="7.73" y="288.01" class="st15" v:langID="1045"><v:paragraph v:horizAlign="1"/><v:tabList/>Component<tspan
						x="27.03" dy="1.2em" class="st16">2</tspan></text>		</g>
		<g id="shape12-45" v:mID="12" v:groupContext="shape" transform="translate(249.245,-242.102)">
			<title>Circle.12</title>
			<desc>Component3</desc>
			<v:userDefs>
				<v:ud v:nameU="visVersion" v:val="VT0(15):26"/>
			</v:userDefs>
			<v:textBlock v:margins="rect(4,4,4,4)" v:tabSpace="42.5197"/>
			<v:textRect cx="29.31" cy="290.707" width="51.3" height="43.965"/>
			<path d="M0 290.71 A29.31 29.31 0 1 1 58.62 290.71 A29.31 29.31 0 0 1 0 290.71 Z" class="st14"/>
			<text x="7.73" y="288.01" class="st15" v:langID="1045"><v:paragraph v:horizAlign="1"/><v:tabList/>Component<tspan
						x="27.03" dy="1.2em" class="st16">3</tspan></text>		</g>
		<g id="shape22-49" v:mID="22" v:groupContext="shape" v:layerMember="0" transform="translate(185.848,-206.719)">
			<title>Dynamic connector.22</title>
			<path d="M7.09 320.02 L7.09 290.63" class="st11"/>
		</g>
		<g id="shape23-54" v:mID="23" v:groupContext="shape" v:layerMember="0" transform="translate(192.935,-206.719)">
			<title>Dynamic connector.23</title>
			<desc>action()</desc>
			<v:textBlock v:margins="rect(4,4,4,4)" v:tabSpace="42.5197"/>
			<v:textRect cx="-1.6051E-07" cy="301.556" width="40" height="17.6036"/>
			<path d="M0 320.02 L0 308.83 L-74.14 308.83 L-74.14 291.67" class="st11"/>
			<rect v:rectContext="textBkgnd" x="-12.5018" y="296.757" width="25.0035" height="9.59985" class="st7"/>
			<text x="-12.5" y="303.96" class="st13" v:langID="1045"><v:paragraph v:horizAlign="1"/><v:tabList/>action()</text>		</g>
		<g id="shape24-61" v:mID="24" v:groupContext="shape" v:layerMember="0" transform="translate(192.935,-206.719)">
			<title>Dynamic connector.24</title>
			<path d="M0 320.02 L0 308.74 L85.62 308.74 L85.62 291.67" class="st11"/>
		</g>
	</g>
</svg>
