<?xml version="1.0" encoding="UTF-8" standalone="no"?>
<!DOCTYPE svg PUBLIC "-//W3C//DTD SVG 1.1//EN" "http://www.w3.org/Graphics/SVG/1.1/DTD/svg11.dtd">
<!-- Generated by Microsoft Visio, SVG Export prototype.svg Page-1 -->
<svg xmlns="http://www.w3.org/2000/svg" xmlns:xlink="http://www.w3.org/1999/xlink" xmlns:ev="http://www.w3.org/2001/xml-events"
		xmlns:v="http://schemas.microsoft.com/visio/2003/SVGExtensions/" width="6.02443in" height="3.18557in"
		viewBox="0 0 433.759 229.361" xml:space="preserve" color-interpolation-filters="sRGB" class="st16">
	<v:documentProperties v:langID="1033" v:metric="true" v:viewMarkup="false">
		<v:userDefs>
			<v:ud v:nameU="msvSubprocessMaster" v:prompt="" v:val="VT4(Rectangle)"/>
			<v:ud v:nameU="msvNoAutoConnect" v:val="VT0(1):26"/>
		</v:userDefs>
	</v:documentProperties>

	<style type="text/css">
	<![CDATA[
		.st1 {fill:#a5a5a5;stroke:#ffffff;stroke-linecap:round;stroke-linejoin:round;stroke-width:0.5}
		.st2 {fill:#ffffff;font-family:Calibri;font-size:1.5em}
		.st3 {marker-end:url(#mrkr4-9);stroke:#5592c9;stroke-linecap:round;stroke-linejoin:round;stroke-width:1}
		.st4 {fill:#5592c9;fill-opacity:1;stroke:#5592c9;stroke-opacity:1;stroke-width:0.28409090909091}
		.st5 {fill:#ffffff;stroke:none;stroke-linecap:butt;stroke-width:7.2}
		.st6 {fill:#41719d;font-family:Calibri;font-size:0.666664em}
		.st7 {fill:#ffffff;stroke:#5b9bd5;stroke-linecap:round;stroke-linejoin:round;stroke-width:0.5}
		.st8 {fill:#5b9ad4;font-family:Calibri;font-size:1.16666em}
		.st9 {fill:#5b9ad4;font-family:Calibri;font-size:0.75em}
		.st10 {fill:#5b9bd5;stroke:#ffffff;stroke-linecap:round;stroke-linejoin:round;stroke-width:0.5}
		.st11 {fill:#ffffff;font-family:Calibri;font-size:0.833336em}
		.st12 {marker-end:url(#mrkr4-32);stroke:#5592c9;stroke-linecap:round;stroke-linejoin:round;stroke-width:0.5}
		.st13 {fill:#5592c9;fill-opacity:1;stroke:#5592c9;stroke-opacity:1;stroke-width:0.16556291390728}
		.st14 {marker-end:url(#mrkr4-9);stroke:#5592c9;stroke-dasharray:1,2;stroke-linecap:round;stroke-linejoin:round;stroke-width:1}
		.st15 {fill:#5b9ad4;font-family:Calibri;font-size:0.833336em}
		.st16 {fill:none;fill-rule:evenodd;font-size:12px;overflow:visible;stroke-linecap:square;stroke-miterlimit:3}
	]]>
	</style>

	<defs id="Markers">
		<g id="lend4">
			<path d="M 2 1 L 0 0 L 2 -1 L 2 1 " style="stroke:none"/>
		</g>
		<marker id="mrkr4-9" class="st4" v:arrowType="4" v:arrowSize="2" v:setback="7.04" refX="-7.04" orient="auto"
				markerUnits="strokeWidth" overflow="visible">
			<use xlink:href="#lend4" transform="scale(-3.52,-3.52) "/>
		</marker>
		<marker id="mrkr4-32" class="st13" v:arrowType="4" v:arrowSize="2" v:setback="12.08" refX="-12.08" orient="auto"
				markerUnits="strokeWidth" overflow="visible">
			<use xlink:href="#lend4" transform="scale(-6.04,-6.04) "/>
		</marker>
	</defs>
	<g v:mID="0" v:index="1" v:groupContext="foregroundPage">
		<v:userDefs>
			<v:ud v:nameU="msvThemeOrder" v:val="VT0(0):26"/>
		</v:userDefs>
		<title>Page-1</title>
		<v:pageProperties v:drawingScale="0.0393701" v:pageScale="0.0393701" v:drawingUnits="24" v:shadowOffsetX="8.50394"
				v:shadowOffsetY="-8.50394"/>
		<v:layer v:name="Connector" v:index="0"/>
		<g id="shape1-1" v:mID="1" v:groupContext="shape" transform="translate(18.25,-127.489)">
			<title>Circle</title>
			<desc>Client</desc>
			<v:userDefs>
				<v:ud v:nameU="visVersion" v:val="VT0(15):26"/>
			</v:userDefs>
			<v:textBlock v:margins="rect(4,4,4,4)" v:tabSpace="42.5197"/>
			<v:textRect cx="41.811" cy="187.55" width="73.17" height="62.7165"/>
			<path d="M0 187.55 A41.811 41.811 0 1 1 83.62 187.55 A41.811 41.811 0 1 1 0 187.55 Z" class="st1"/>
			<text x="20.66" y="192.95" class="st2" v:langID="1045"><v:paragraph v:horizAlign="1"/><v:tabList/>Client</text>		</g>
		<g id="shape3-4" v:mID="3" v:groupContext="shape" v:layerMember="0" transform="translate(101.872,-162.213)">
			<title>Dynamic connector.11</title>
			<desc>new</desc>
			<v:textBlock v:margins="rect(4,4,4,4)" v:tabSpace="42.5197"/>
			<v:textRect cx="25.3701" cy="222.558" width="40" height="17.6036"/>
			<path d="M0 222.27 L50.08 222.27" class="st3"/>
			<rect v:rectContext="textBkgnd" x="18.4191" y="217.758" width="13.9021" height="9.59985" class="st5"/>
			<text x="18.42" y="224.96" class="st6" v:langID="1045"><v:paragraph v:horizAlign="1"/><v:tabList/>new</text>		</g>
		<g id="shape5-12" v:mID="5" v:groupContext="shape" transform="translate(158.99,-127.489)">
			<title>Circle.19</title>
			<desc>Prototype1</desc>
			<v:userDefs>
				<v:ud v:nameU="visVersion" v:val="VT0(15):26"/>
			</v:userDefs>
			<v:textBlock v:margins="rect(4,4,4,4)" v:tabSpace="42.5197"/>
			<v:textRect cx="41.811" cy="187.55" width="73.17" height="62.7165"/>
			<path d="M0 187.55 A41.811 41.811 0 1 1 83.62 187.55 A41.811 41.811 0 1 1 0 187.55 Z" class="st7"/>
			<text x="9.81" y="191.75" class="st8" v:langID="1045"><v:paragraph v:horizAlign="1"/><v:tabList/>Prototype1</text>		</g>
		<g id="shape7-15" v:mID="7" v:groupContext="shape" transform="translate(312.061,-146.623)">
			<title>Circle.23</title>
			<desc>Clone1</desc>
			<v:userDefs>
				<v:ud v:nameU="visVersion" v:val="VT0(15):26"/>
			</v:userDefs>
			<v:textBlock v:margins="rect(4,4,4,4)" v:tabSpace="42.5197"/>
			<v:textRect cx="22.6772" cy="206.684" width="39.69" height="34.0157"/>
			<path d="M0 206.68 A22.6772 22.6772 0 0 1 45.35 206.68 A22.6772 22.6772 0 1 1 0 206.68 Z" class="st7"/>
			<text x="9.99" y="209.38" class="st9" v:langID="1045"><v:paragraph v:horizAlign="1"/><v:tabList/>Clone1</text>		</g>
		<g id="shape10-18" v:mID="10" v:groupContext="shape" transform="translate(151.904,-18.25)">
			<title>Rounded Rectangle.15</title>
			<desc>Prototype</desc>
			<v:userDefs>
				<v:ud v:nameU="CTypeTopLeftSnip" v:prompt="" v:val="VT0(0):5"/>
				<v:ud v:nameU="CTypeTopRightSnip" v:prompt="" v:val="VT0(0):5"/>
				<v:ud v:nameU="CTypeBotLeftSnip" v:prompt="" v:val="VT0(0):5"/>
				<v:ud v:nameU="CTypeBotRightSnip" v:prompt="" v:val="VT0(0):5"/>
				<v:ud v:nameU="CornerLockHoriz" v:prompt="" v:val="VT0(1):5"/>
				<v:ud v:nameU="CornerLockVert" v:prompt="" v:val="VT0(1):5"/>
				<v:ud v:nameU="CornerLockDiag" v:prompt="" v:val="VT0(0):5"/>
				<v:ud v:nameU="TopLeftOffset" v:prompt="" v:val="VT0(0.15748031496063):24"/>
				<v:ud v:nameU="TopRightOffset" v:prompt="" v:val="VT0(0.15748031496063):24"/>
				<v:ud v:nameU="BotLeftOffset" v:prompt="" v:val="VT0(0.15748031496063):24"/>
				<v:ud v:nameU="BotRightOffset" v:prompt="" v:val="VT0(0.15748031496063):24"/>
				<v:ud v:nameU="visVersion" v:prompt="" v:val="VT0(15):26"/>
				<v:ud v:nameU="TopLeftOffset" v:prompt="" v:val="VT0(0.13582677283655):1"/>
				<v:ud v:nameU="TopRightOffset" v:prompt="" v:val="VT0(0.13582677283655):1"/>
				<v:ud v:nameU="BotLeftOffset" v:prompt="" v:val="VT0(0.13582677283655):1"/>
				<v:ud v:nameU="BotRightOffset" v:prompt="" v:val="VT0(0.13582677283655):1"/>
			</v:userDefs>
			<v:textBlock v:margins="rect(4,4,4,4)" v:tabSpace="42.5197"/>
			<v:textRect cx="48.8976" cy="192.688" width="97.8" height="73.3465"/>
			<path d="M9.78 229.36 L88.02 229.36 A9.77937 9.77937 -180 0 0 97.8 219.58 L97.8 165.79 A9.77937 9.77937 -180 0 0 88.02
						 156.01 L9.78 156.01 A9.77937 9.77937 -180 0 0 -0 165.79 L0 219.58 A9.77937 9.77937 -180 0 0 9.78 229.36
						 Z" class="st10"/>
			<text x="28.57" y="195.69" class="st11" v:langID="1045"><v:paragraph v:horizAlign="1"/><v:tabList/>Prototype</text>		</g>
		<g id="shape11-21" v:mID="11" v:groupContext="shape" transform="translate(312.061,-91.3622)">
			<title>Circle.16</title>
			<desc>Clone2</desc>
			<v:userDefs>
				<v:ud v:nameU="visVersion" v:val="VT0(15):26"/>
			</v:userDefs>
			<v:textBlock v:margins="rect(4,4,4,4)" v:tabSpace="42.5197"/>
			<v:textRect cx="22.6772" cy="206.684" width="39.69" height="34.0157"/>
			<path d="M0 206.68 A22.6772 22.6772 0 0 1 45.35 206.68 A22.6772 22.6772 0 1 1 0 206.68 Z" class="st7"/>
			<text x="9.99" y="209.38" class="st9" v:langID="1045"><v:paragraph v:horizAlign="1"/><v:tabList/>Clone2</text>		</g>
		<g id="shape12-24" v:mID="12" v:groupContext="shape" transform="translate(312.061,-36.1016)">
			<title>Circle.17</title>
			<desc>Clone3</desc>
			<v:userDefs>
				<v:ud v:nameU="visVersion" v:val="VT0(15):26"/>
			</v:userDefs>
			<v:textBlock v:margins="rect(4,4,4,4)" v:tabSpace="42.5197"/>
			<v:textRect cx="22.6772" cy="206.684" width="39.69" height="34.0157"/>
			<path d="M0 206.68 A22.6772 22.6772 0 0 1 45.35 206.68 A22.6772 22.6772 0 1 1 0 206.68 Z" class="st7"/>
			<text x="9.99" y="209.38" class="st9" v:langID="1045"><v:paragraph v:horizAlign="1"/><v:tabList/>Clone3</text>		</g>
		<g id="shape15-27" v:mID="15" v:groupContext="shape" v:layerMember="0" transform="translate(357.415,-176.103)">
			<title>Dynamic connector.22</title>
			<desc>action()</desc>
			<v:textBlock v:margins="rect(4,4,4,4)" v:tabSpace="42.5197"/>
			<v:textRect cx="25.5118" cy="236.448" width="40" height="17.6036"/>
			<path d="M0 236.16 L44.98 236.66" class="st12"/>
			<rect v:rectContext="textBkgnd" x="13.01" y="231.648" width="25.0035" height="9.59985" class="st5"/>
			<text x="13.01" y="238.85" class="st6" v:langID="1045"><v:paragraph v:horizAlign="1"/><v:tabList/>action()</text>		</g>
		<g id="shape16-35" v:mID="16" v:groupContext="shape" v:layerMember="0" transform="translate(207.888,-127.489)">
			<title>Dynamic connector.23</title>
			<desc>extend</desc>
			<v:textBlock v:margins="rect(4,4,4,4)" v:tabSpace="42.5197"/>
			<v:textRect cx="-6.94488" cy="244.81" width="40" height="17.6036"/>
			<path d="M-7.09 229.36 L-7.09 258.21" class="st14"/>
			<rect v:rectContext="textBkgnd" x="-18.2006" y="240.01" width="22.5113" height="9.59985" class="st5"/>
			<text x="-18.2" y="247.21" class="st6" v:langID="1045"><v:paragraph v:horizAlign="1"/><v:tabList/>extend</text>		</g>
		<g id="shape18-42" v:mID="18" v:groupContext="shape" transform="translate(167.848,-25.0166)">
			<title>Ellipse</title>
			<desc>copy()</desc>
			<v:userDefs>
				<v:ud v:nameU="visVersion" v:val="VT0(15):26"/>
			</v:userDefs>
			<v:textBlock v:margins="rect(4,4,4,4)" v:tabSpace="42.5197"/>
			<v:textRect cx="32.9528" cy="220.857" width="57.67" height="14.8819"/>
			<path d="M0 220.86 A32.9528 8.50394 0 1 1 65.91 220.86 A32.9528 8.50394 0 1 1 0 220.86 Z" class="st7"/>
			<text x="20.28" y="223.86" class="st15" v:langID="1045"><v:paragraph v:horizAlign="1"/><v:tabList/>copy()</text>		</g>
		<g id="shape19-45" v:mID="19" v:groupContext="shape" v:layerMember="0" transform="translate(242.612,-162.213)">
			<title>Dynamic connector</title>
			<desc>copy()</desc>
			<v:textBlock v:margins="rect(4,4,4,4)" v:tabSpace="42.5197"/>
			<v:textRect cx="46.7716" cy="221.991" width="40" height="17.6036"/>
			<path d="M0 222.27 L63.41 222.27" class="st12"/>
			<rect v:rectContext="textBkgnd" x="36.633" y="217.191" width="20.2772" height="9.59985" class="st5"/>
			<text x="36.63" y="224.39" class="st6" v:langID="1045"><v:paragraph v:horizAlign="1"/><v:tabList/>copy()</text>		</g>
		<g id="shape20-52" v:mID="20" v:groupContext="shape" v:layerMember="0" transform="translate(242.612,-169.3)">
			<title>Dynamic connector.20</title>
			<desc>copy()</desc>
			<v:textBlock v:margins="rect(4,4,4,4)" v:tabSpace="42.5197"/>
			<v:textRect cx="47.9055" cy="284.07" width="40" height="17.6036"/>
			<path d="M0 229.36 L29.76 229.36 L29.76 284.62 L63.41 284.62" class="st12"/>
			<rect v:rectContext="textBkgnd" x="37.7668" y="279.27" width="20.2772" height="9.59985" class="st5"/>
			<text x="37.77" y="286.47" class="st6" v:langID="1045"><v:paragraph v:horizAlign="1"/><v:tabList/>copy()</text>		</g>
		<g id="shape21-59" v:mID="21" v:groupContext="shape" v:layerMember="0" transform="translate(242.612,-169.3)">
			<title>Dynamic connector.21</title>
			<desc>copy()</desc>
			<v:textBlock v:margins="rect(4,4,4,4)" v:tabSpace="42.5197"/>
			<v:textRect cx="48.189" cy="339.629" width="40" height="17.6036"/>
			<path d="M0 229.36 L29.76 229.36 L29.76 339.88 L63.41 339.88" class="st12"/>
			<rect v:rectContext="textBkgnd" x="38.0503" y="334.829" width="20.2772" height="9.59985" class="st5"/>
			<text x="38.05" y="342.03" class="st6" v:langID="1045"><v:paragraph v:horizAlign="1"/><v:tabList/>copy()</text>		</g>
		<g id="shape24-66" v:mID="24" v:groupContext="shape" v:layerMember="0" transform="translate(357.415,-120.977)">
			<title>Dynamic connector.24</title>
			<desc>modify</desc>
			<v:textBlock v:margins="rect(4,4,4,4)" v:tabSpace="42.5197"/>
			<v:textRect cx="25.7953" cy="236.448" width="40" height="17.6036"/>
			<path d="M0 236.3 L45.55 236.56" class="st12"/>
			<rect v:rectContext="textBkgnd" x="14.4399" y="231.648" width="22.7107" height="9.59985" class="st5"/>
			<text x="14.44" y="238.85" class="st6" v:langID="1045"><v:paragraph v:horizAlign="1"/><v:tabList/>modify</text>		</g>
	</g>
</svg>
