<?xml version="1.0" encoding="UTF-8" standalone="no"?>
<!-- Created with Inkscape (http://www.inkscape.org/) -->

<svg
   xmlns:dc="http://purl.org/dc/elements/1.1/"
   xmlns:cc="http://creativecommons.org/ns#"
   xmlns:rdf="http://www.w3.org/1999/02/22-rdf-syntax-ns#"
   xmlns:svg="http://www.w3.org/2000/svg"
   xmlns="http://www.w3.org/2000/svg"
   xmlns:sodipodi="http://sodipodi.sourceforge.net/DTD/sodipodi-0.dtd"
   xmlns:inkscape="http://www.inkscape.org/namespaces/inkscape"
   width="100"
   height="30"
   viewBox="0 0 26.458333 7.9374995"
   version="1.1"
   id="svg6373"
   inkscape:version="0.92.2 (5c3e80d, 2017-08-06)"
   sodipodi:docname="logo7.svg">
  <defs
     id="defs6367" />
  <sodipodi:namedview
     id="base"
     pagecolor="#ffffff"
     bordercolor="#666666"
     borderopacity="1.0"
     inkscape:pageopacity="0.0"
     inkscape:pageshadow="2"
     inkscape:zoom="3.959798"
     inkscape:cx="20.75049"
     inkscape:cy="7.3130927"
     inkscape:document-units="mm"
     inkscape:current-layer="layer1"
     showgrid="false"
     units="px"
     inkscape:window-width="1920"
     inkscape:window-height="1017"
     inkscape:window-x="1912"
     inkscape:window-y="-8"
     inkscape:window-maximized="1" />
  <metadata
     id="metadata6370">
    <rdf:RDF>
      <cc:Work
         rdf:about="">
        <dc:format>image/svg+xml</dc:format>
        <dc:type
           rdf:resource="http://purl.org/dc/dcmitype/StillImage" />
        <dc:title></dc:title>
      </cc:Work>
    </rdf:RDF>
  </metadata>
  <g
     inkscape:label="Layer 1"
     inkscape:groupmode="layer"
     id="layer1"
     transform="translate(0,-289.0625)">
    <text
       xml:space="preserve"
       style="font-style:normal;font-variant:normal;font-weight:normal;font-stretch:normal;font-size:2.82222223px;line-height:1.25;font-family:Anivers;-inkscape-font-specification:Anivers;letter-spacing:0px;word-spacing:0px;fill:#000000;fill-opacity:1;stroke:none;stroke-width:0.26458332"
       x="13.322368"
       y="292.3793"
       id="text6920"><tspan
         sodipodi:role="line"
         id="tspan6918"
         x="13.322368"
         y="292.3793"
         style="font-style:normal;font-variant:normal;font-weight:normal;font-stretch:normal;font-size:3.17499995px;line-height:1;font-family:Anivers;-inkscape-font-specification:Anivers;stroke-width:0.26458332">ANDROID </tspan><tspan
         sodipodi:role="line"
         x="13.322368"
         y="295.90707"
         style="font-style:normal;font-variant:normal;font-weight:normal;font-stretch:normal;font-size:3.17499995px;line-height:1;font-family:Anivers;-inkscape-font-specification:Anivers;fill:#9fbf3b;fill-opacity:1;stroke-width:0.26458332"
         id="tspan6922">CODE</tspan></text>
    <g
       transform="matrix(0.01671161,0,0,0.01671161,1.4421442,288.94668)"
       id="androd">
      <path
         style="fill:#9fbf3b"
         inkscape:connector-curvature="0"
         d="m 301.314,83.298 20.159,-29.272 c 1.197,-1.74 0.899,-4.024 -0.666,-5.104 -1.563,-1.074 -3.805,-0.543 -4.993,1.199 L 294.863,80.53 c -13.807,-5.439 -29.139,-8.47 -45.299,-8.47 -16.16,0 -31.496,3.028 -45.302,8.47 L 183.314,50.12 c -1.201,-1.74 -3.439,-2.273 -5.003,-1.199 -1.564,1.077 -1.861,3.362 -0.664,5.104 l 20.166,29.272 c -32.063,14.916 -54.548,43.26 -57.413,76.34 h 218.316 c -2.855,-33.08 -25.341,-61.423 -57.402,-76.339"
         id="path5145" />
      <path
         style="fill:#ffffff"
         inkscape:connector-curvature="0"
         d="m 203.956,129.438 c -6.673,0 -12.08,-5.407 -12.08,-12.079 0,-6.671 5.404,-12.08 12.08,-12.08 6.668,0 12.073,5.407 12.073,12.08 0.001,6.671 -5.405,12.079 -12.073,12.079"
         id="path5147" />
      <path
         style="fill:#ffffff"
         inkscape:connector-curvature="0"
         d="m 295.161,129.438 c -6.668,0 -12.074,-5.407 -12.074,-12.079 0,-6.673 5.406,-12.08 12.074,-12.08 6.675,0 12.079,5.409 12.079,12.08 0,6.671 -5.406,12.079 -12.079,12.079"
         id="path5149" />
      <path
         style="fill:#9fbf3b"
         inkscape:connector-curvature="0"
         d="m 126.383,297.598 c 0,13.45 -10.904,24.354 -24.355,24.354 v 0 c -13.45,0 -24.354,-10.904 -24.354,-24.354 V 199.09 c 0,-13.45 10.904,-24.354 24.354,-24.354 v 0 c 13.451,0 24.355,10.904 24.355,24.354 z"
         id="path5151" />
      <path
         style="fill:#9fbf3b"
         inkscape:connector-curvature="0"
         d="m 140.396,175.489 v 177.915 c 0,10.566 8.566,19.133 19.135,19.133 h 22.633 v 54.744 c 0,13.451 10.903,24.354 24.354,24.354 13.451,0 24.355,-10.903 24.355,-24.354 v -54.744 h 37.371 v 54.744 c 0,13.451 10.902,24.354 24.354,24.354 13.452,0 24.354,-10.903 24.354,-24.354 v -54.744 h 22.633 c 10.569,0 19.137,-8.562 19.137,-19.133 V 175.489 Z"
         id="path5153" />
      <path
         style="fill:#9fbf3b"
         inkscape:connector-curvature="0"
         d="m 372.734,297.598 c 0,13.45 10.903,24.354 24.354,24.354 v 0 c 13.45,0 24.354,-10.904 24.354,-24.354 V 199.09 c 0,-13.45 -10.904,-24.354 -24.354,-24.354 v 0 c -13.451,0 -24.354,10.904 -24.354,24.354 z"
         id="path5155" />
    </g>
    <text
       xml:space="preserve"
       style="font-style:normal;font-variant:normal;font-weight:normal;font-stretch:normal;font-size:2.82222223px;line-height:1.25;font-family:Anivers;-inkscape-font-specification:Anivers;letter-spacing:0px;word-spacing:0px;fill:#000000;fill-opacity:1;stroke:none;stroke-width:0.26458332"
       x="0.13363473"
       y="294.3941"
       id="text6959"><tspan
         sodipodi:role="line"
         id="tspan6957"
         x="0.13363473"
         y="294.3941"
         style="font-size:4.23333311px;stroke-width:0.26458332">&lt;      /&gt;</tspan></text>
  </g>
</svg>
